<?xml version="1.0" encoding="utf-8"?>
<!-- Generator: Adobe Illustrator 16.0.0, SVG Export Plug-In . SVG Version: 6.00 Build 0)  -->
<!DOCTYPE svg PUBLIC "-//W3C//DTD SVG 1.1//EN" "http://www.w3.org/Graphics/SVG/1.1/DTD/svg11.dtd">
<svg version="1.1" id="Layer_1" xmlns="http://www.w3.org/2000/svg" xmlns:xlink="http://www.w3.org/1999/xlink" x="0px" y="0px"
	 width="40px" height="40px" viewBox="0 0 40 40" enable-background="new 0 0 40 40" xml:space="preserve">
<path fill-rule="evenodd" clip-rule="evenodd" fill="#FFFFFF" d="M0.239,20.041c0-10.87,8.82-19.69,19.69-19.69
	c10.88,0,19.689,8.82,19.689,19.69c0,10.88-8.809,19.689-19.689,19.689C9.059,39.73,0.239,30.921,0.239,20.041z"/>
<g>
	<path fill-rule="evenodd" clip-rule="evenodd" fill="#435162" d="M9.829,27.411c0.09-0.11,0.59-0.69,1.6-1.08
		c0.88-0.271,3.08-1,4.28-1.87c0.05-0.029,0.11-0.09,0.16-0.141c0.11-0.119,0.28-0.299,0.48-0.489l0.11-0.101l0.11,0.11
		c1.06,0.99,2.23,1.54,3.299,1.54c1.121,0,2.271-0.49,3.339-1.41L23.3,23.9l0.219,0.111c0.201,0.189,0.551,0.439,0.721,0.52
		l0.209,0.1l-0.029,0.02l0.1,0.061c0.189,0.12,0.41,0.24,0.66,0.359c0.25,0.111,0.471,0.191,0.689,0.271
		c0.182,0.06,1.17,0.39,2.291,0.91l0.221,0.06c1.1,0.42,1.578,1.01,1.629,1.07c1.311,1.93,1.811,5.54,1.99,7.551
		c-3.4,2.76-7.689,4.279-12.07,4.279c-4.38,0-8.66-1.52-12.07-4.279C8.039,32.921,8.539,29.331,9.829,27.411z M14.459,16.241
		l0.04-0.05c0.17-0.11,0.25-0.3,0.22-0.49c-0.41-2.43-0.14-3.44-0.05-3.69c0.7-2.16,2.91-3.16,3.35-3.34
		c0.09-0.04,0.26-0.09,0.43-0.11l0.051-0.02l0.359-0.01v0.02l0.08-0.01l0.23-0.04l0.08-0.01c0.07,0,0.93,0.11,2.208,0.5l0.891,0.3
		c1.621,0.48,2.371,1.38,2.51,1.56c1.301,1.47,0.951,3.69,0.631,4.89c-0.041,0.14-0.02,0.28,0.061,0.4l0.08,0.1
		c0.09,0.12,0.17,0.62-0.111,1.67c-0.049,0.32-0.17,0.57-0.34,0.75c-0.07,0.07-0.109,0.16-0.129,0.26
		c-0.441,2.58-2.75,5.46-5.181,5.46c-2.069,0-4.43-2.65-4.85-5.46c-0.02-0.1-0.06-0.19-0.13-0.27c-0.18-0.19-0.29-0.45-0.36-0.84
		C14.319,17.081,14.299,16.481,14.459,16.241z M19.929,0.041c-11.03,0-20,8.97-20,20c0,11.029,8.97,20,20,20
		c11.029,0,20-8.971,20-20C39.929,9.011,30.958,0.041,19.929,0.041z"/>
</g>
</svg>
