<?xml version="1.0" encoding="utf-8"?>
<!-- Generator: Adobe Illustrator 16.0.0, SVG Export Plug-In . SVG Version: 6.00 Build 0)  -->
<!DOCTYPE svg PUBLIC "-//W3C//DTD SVG 1.1//EN" "http://www.w3.org/Graphics/SVG/1.1/DTD/svg11.dtd">
<svg version="1.1" id="Layer_1" xmlns="http://www.w3.org/2000/svg" xmlns:xlink="http://www.w3.org/1999/xlink" x="0px" y="0px"
	 width="15px" height="15px" viewBox="0 0 15 15" enable-background="new 0 0 15 15" xml:space="preserve">
<path fill-rule="evenodd" clip-rule="evenodd" fill="#B2B396" d="M8.779,9.109C8.77,9.23,8.67,9.33,8.561,9.33H6.45
	c-0.12,0-0.22-0.1-0.23-0.221L6.04,2.38c0-0.06,0.02-0.12,0.06-0.16c0.04-0.04,0.1-0.07,0.16-0.07h2.48c0.06,0,0.119,0.02,0.16,0.07
	c0.039,0.04,0.06,0.1,0.06,0.16L8.779,9.109z M8.77,12.63c0,0.12-0.1,0.22-0.22,0.22h-2.1c-0.12,0-0.22-0.1-0.22-0.22v-1.95
	c0-0.119,0.1-0.22,0.22-0.22h2.1c0.12,0,0.22,0.101,0.22,0.22V12.63z M7.5,0C3.36,0,0,3.36,0,7.5C0,11.641,3.36,15,7.5,15
	c4.141,0,7.5-3.359,7.5-7.5C15,3.36,11.641,0,7.5,0z"/>
</svg>
