<?xml version="1.0" encoding="utf-8"?>
<!-- Generator: Adobe Illustrator 16.0.0, SVG Export Plug-In . SVG Version: 6.00 Build 0)  -->
<!DOCTYPE svg PUBLIC "-//W3C//DTD SVG 1.1//EN" "http://www.w3.org/Graphics/SVG/1.1/DTD/svg11.dtd">
<svg version="1.1" id="Layer_1" xmlns="http://www.w3.org/2000/svg" xmlns:xlink="http://www.w3.org/1999/xlink" x="0px" y="0px"
	 width="41px" height="41px" viewBox="0 0 41 41" enable-background="new 0 0 41 41" xml:space="preserve">
<g>
	
		<path fill-rule="evenodd" clip-rule="evenodd" fill="#FFFFFF" stroke="#435162" stroke-linecap="round" stroke-linejoin="round" stroke-miterlimit="10" d="
		M0.5,20.5c0-11.05,8.95-20,20-20s20,8.95,20,20s-8.95,20-20,20S0.5,31.55,0.5,20.5z"/>
	<g>
		<path fill-rule="evenodd" clip-rule="evenodd" fill="#435162" d="M11.52,27.05c0.08-0.1,0.521-0.62,1.42-0.96
			c0.791-0.24,2.74-0.89,3.811-1.66c0.05-0.03,0.1-0.08,0.141-0.12c0.1-0.11,0.25-0.27,0.43-0.44l0.1-0.09l0.1,0.09
			c0.94,0.89,1.98,1.37,2.92,1.37c1,0,2.031-0.43,2.98-1.24l0.07-0.07l0.199,0.1c0.181,0.17,0.49,0.39,0.641,0.46l0.18,0.09
			l-0.02,0.02l0.09,0.05c0.17,0.11,0.359,0.21,0.59,0.32c0.221,0.1,0.41,0.17,0.609,0.24c0.16,0.05,1.041,0.35,2.041,0.81
			l0.189,0.05c0.971,0.38,1.41,0.9,1.45,0.95c1.16,1.72,1.601,4.93,1.771,6.71c-3.03,2.46-6.84,3.81-10.73,3.81
			s-7.7-1.35-10.73-3.81C9.93,31.95,10.38,28.75,11.52,27.05z M15.641,17.12l0.039-0.04c0.141-0.1,0.211-0.27,0.19-0.44
			c-0.36-2.16-0.13-3.05-0.05-3.28c0.63-1.92,2.59-2.81,2.979-2.97c0.08-0.03,0.229-0.07,0.39-0.1l0.041-0.01l0.319-0.02v0.02h0.07
			l0.21-0.03l0.07-0.02c0.06,0,0.82,0.1,1.959,0.45l0.791,0.27c1.439,0.42,2.109,1.22,2.229,1.38c1.16,1.31,0.851,3.29,0.56,4.35
			c-0.029,0.12-0.01,0.25,0.061,0.36l0.061,0.08c0.09,0.11,0.16,0.55-0.09,1.48c-0.051,0.29-0.15,0.52-0.311,0.67
			c-0.051,0.06-0.09,0.15-0.11,0.24c-0.39,2.29-2.44,4.85-4.61,4.85c-1.83,0-3.93-2.36-4.299-4.85c-0.021-0.1-0.061-0.18-0.121-0.25
			c-0.16-0.16-0.26-0.4-0.319-0.74C15.52,17.87,15.5,17.34,15.641,17.12z M20.5,2.72c-9.8,0-17.779,7.98-17.779,17.78
			S10.7,38.28,20.5,38.28S38.279,30.3,38.279,20.5S30.3,2.72,20.5,2.72z"/>
	</g>
</g>
</svg>
