<?xml version="1.0" encoding="utf-8"?>
<!-- Generator: Adobe Illustrator 16.0.0, SVG Export Plug-In . SVG Version: 6.00 Build 0)  -->
<!DOCTYPE svg PUBLIC "-//W3C//DTD SVG 1.1//EN" "http://www.w3.org/Graphics/SVG/1.1/DTD/svg11.dtd">
<svg version="1.1" id="Layer_1" xmlns="http://www.w3.org/2000/svg" xmlns:xlink="http://www.w3.org/1999/xlink" x="0px" y="0px"
	 width="20px" height="20px" viewBox="0 0 20 20" enable-background="new 0 0 20 20" xml:space="preserve">
<g>
	<path fill-rule="evenodd" clip-rule="evenodd" fill="#6C7A89" d="M9.71,15.471c-1.28-0.041-2.33,0.84-2.37,2.209
		C7.3,19.05,8.3,19.96,9.58,20c1.33,0.04,2.359-0.811,2.4-2.18C12.02,16.439,11.04,15.51,9.71,15.471z M14.58,1.37
		C13.311,0.46,11.7,0,9.77,0C8.3,0,7.06,0.32,6.05,0.96C4.45,1.97,3.6,3.68,3.5,6.09h3.71c0-0.7,0.2-1.38,0.62-2.03
		c0.41-0.65,1.109-0.98,2.1-0.98c1.01,0,1.7,0.27,2.08,0.8c0.381,0.53,0.57,1.11,0.57,1.75c0,0.56-0.29,1.08-0.63,1.54
		c-0.181,0.27-0.431,0.52-0.74,0.75c0,0-2.01,1.28-2.89,2.301c-0.51,0.6-0.561,1.489-0.6,2.77C7.71,13.08,7.75,13.27,8.07,13.27
		h2.88c0.29,0,0.35-0.209,0.35-0.299c0.021-0.471,0.08-0.711,0.16-0.98c0.16-0.5,0.601-0.95,1.101-1.33l1.02-0.7
		c0.92-0.71,1.65-1.29,1.98-1.75C16.109,7.46,16.5,6.53,16.5,5.43C16.5,3.64,15.859,2.28,14.58,1.37z"/>
</g>
</svg>
