<?xml version="1.0" encoding="utf-8"?>
<!-- Generator: Adobe Illustrator 16.0.0, SVG Export Plug-In . SVG Version: 6.00 Build 0)  -->
<!DOCTYPE svg PUBLIC "-//W3C//DTD SVG 1.1//EN" "http://www.w3.org/Graphics/SVG/1.1/DTD/svg11.dtd">
<svg version="1.1" id="Layer_1" xmlns="http://www.w3.org/2000/svg" xmlns:xlink="http://www.w3.org/1999/xlink" x="0px" y="0px"
	 width="21.59px" height="21.14px" viewBox="0 0 21.59 21.14" enable-background="new 0 0 21.59 21.14" xml:space="preserve">
<g>
	<path fill="#FFFFFF" d="M12.96,16.299h-7.7V5.7h7.7c0.181,0,0.31-0.13,0.31-0.3V4.3c0-0.17-0.129-0.3-0.31-0.3H3.81
		C3.64,4,3.5,4.13,3.5,4.3v13.4C3.5,17.87,3.64,18,3.81,18h9.15c0.181,0,0.31-0.131,0.31-0.301v-1.1
		C13.27,16.43,13.141,16.299,12.96,16.299z"/>
	<path fill="#FFFFFF" d="M18.41,10.79l-4.17-4.03c-0.11-0.11-0.32-0.11-0.43,0l-0.99,0.96c-0.12,0.12-0.12,0.3,0,0.42l1.88,1.82
		H6.55c-0.17,0-0.31,0.13-0.31,0.3v1.481c0,0.17,0.14,0.299,0.31,0.299h8.15l-1.88,1.82c-0.12,0.12-0.12,0.311,0,0.42l0.99,0.961
		c0.049,0.049,0.129,0.079,0.209,0.079c0.09,0,0.17-0.03,0.221-0.079l4.17-4.031c0.061-0.049,0.09-0.129,0.09-0.209
		S18.471,10.84,18.41,10.79z"/>
</g>
</svg>
