<?xml version="1.0" encoding="utf-8"?>
<!-- Generator: Adobe Illustrator 16.0.0, SVG Export Plug-In . SVG Version: 6.00 Build 0)  -->
<!DOCTYPE svg PUBLIC "-//W3C//DTD SVG 1.1//EN" "http://www.w3.org/Graphics/SVG/1.1/DTD/svg11.dtd">
<svg version="1.1" id="Layer_1" xmlns="http://www.w3.org/2000/svg" xmlns:xlink="http://www.w3.org/1999/xlink" x="0px" y="0px"
	 width="15px" height="15px" viewBox="0 0 15 15" enable-background="new 0 0 15 15" xml:space="preserve">
<path fill-rule="evenodd" clip-rule="evenodd" fill="#3788C8" d="M0.29,2.859C0.109,3.141,0,3.471,0,3.83v7.34
	c0,0.32,0.09,0.62,0.24,0.88l4.74-5.18L0.29,2.859z M9.32,7.471L7.811,8.76C7.721,8.84,7.609,8.87,7.5,8.87S7.279,8.84,7.189,8.76
	L5.68,7.471l-4.789,5.25C1.17,12.891,1.51,13,1.88,13h11.25c0.36,0,0.7-0.109,0.979-0.279L9.32,7.471z M7.5,7.811l6.52-5.58
	C13.75,2.09,13.45,2,13.13,2H1.88C1.55,2,1.25,2.09,0.98,2.23L7.5,7.811z M15,11.17c0,0.32-0.09,0.62-0.24,0.88l-4.74-5.18
	l4.69-4.011C14.891,3.141,15,3.471,15,3.83V11.17z"/>
</svg>
