<?xml version="1.0" encoding="utf-8"?>
<!-- Generator: Adobe Illustrator 16.0.0, SVG Export Plug-In . SVG Version: 6.00 Build 0)  -->
<!DOCTYPE svg PUBLIC "-//W3C//DTD SVG 1.1//EN" "http://www.w3.org/Graphics/SVG/1.1/DTD/svg11.dtd">
<svg version="1.1" id="Layer_1" xmlns="http://www.w3.org/2000/svg" xmlns:xlink="http://www.w3.org/1999/xlink" x="0px" y="0px"
	 width="15px" height="15px" viewBox="0 0 15 15" enable-background="new 0 0 15 15" xml:space="preserve">
<polygon fill="#3788C8" points="14.84,9.38 12.971,10.12 13.55,12.05 11.55,12.02 11.359,14.02 9.52,13.221 8.57,15 7.17,13.55 
	5.62,14.84 4.88,12.971 2.95,13.57 2.98,11.55 0.98,11.359 1.779,9.52 0,8.59 1.45,7.17 0.16,5.62 2.029,4.88 1.45,2.971 3.45,3 
	3.641,0.98 5.48,1.79 6.43,0 7.83,1.45 9.38,0.17 10.12,2.029 12.05,1.45 12.02,3.471 14.02,3.66 13.221,5.5 15,6.43 13.55,7.83 "/>
</svg>
