<?xml version="1.0" encoding="utf-8"?>
<!-- Generator: Adobe Illustrator 16.0.0, SVG Export Plug-In . SVG Version: 6.00 Build 0)  -->
<!DOCTYPE svg PUBLIC "-//W3C//DTD SVG 1.1//EN" "http://www.w3.org/Graphics/SVG/1.1/DTD/svg11.dtd">
<svg version="1.1" id="Layer_1" xmlns="http://www.w3.org/2000/svg" xmlns:xlink="http://www.w3.org/1999/xlink" x="0px" y="0px"
	 width="20px" height="18px" viewBox="0 0 20 18" enable-background="new 0 0 20 18" xml:space="preserve">
     <g opacity=".6">
         <path fill="#FFFFFF" d="M1.65,3.29C0.71,3.29,0,2.6,0,1.67C0,0.74,0.71,0,1.65,0H18.3C19.25,0,20,0.74,20,1.67
    c0,0.93-0.75,1.62-1.7,1.62H1.65z"/>
        <path fill="#FFFFFF" d="M18.3,7.33C19.25,7.33,20,8.07,20,9c0,0.93-0.75,1.62-1.7,1.62H1.65C0.71,10.62,0,9.93,0,9
            c0-0.93,0.71-1.67,1.65-1.67H18.3z"/>
        <path fill="#FFFFFF" d="M18.3,14.71c0.95,0,1.7,0.69,1.7,1.62S19.25,18,18.3,18H1.65C0.71,18,0,17.26,0,16.33s0.71-1.62,1.65-1.62
            H18.3z"/>

     </g>
</svg>
