<?xml version="1.0" encoding="utf-8"?>
<!-- Generator: Adobe Illustrator 16.0.0, SVG Export Plug-In . SVG Version: 6.00 Build 0)  -->
<!DOCTYPE svg PUBLIC "-//W3C//DTD SVG 1.1//EN" "http://www.w3.org/Graphics/SVG/1.1/DTD/svg11.dtd">
<svg version="1.1" id="Layer_1" xmlns="http://www.w3.org/2000/svg" xmlns:xlink="http://www.w3.org/1999/xlink" x="0px" y="0px"
	 width="20px" height="16px" viewBox="0 0 20 16" enable-background="new 0 0 20 16" xml:space="preserve">
<g>
	<path fill-rule="evenodd" clip-rule="evenodd" fill="#003579" d="M15.113,13.63c-3,3-7.69,2.82-10.49-0.26
		c-2.72-3-2.72-7.74,0-10.74c2.8-3.08,7.49-3.26,10.49-0.26C18.184,5.439,18.184,10.561,15.113,13.63z"/>
	<path fill="#FFFFFF" d="M6.244,7h2.5h2h2.59c0.189,0,0.051,0.08,0.18,0.21c0.131,0.13,0.211,0.86,0.211,1.06
		c0,0.4-0.32,0.73-0.711,0.73h-2.27h-2h-2.5c-0.359,0-0.34-0.609-0.34-1S5.884,7,6.244,7z"/>
</g>
</svg>
