<?xml version="1.0" encoding="utf-8"?>
<!-- Generator: Adobe Illustrator 16.0.0, SVG Export Plug-In . SVG Version: 6.00 Build 0)  -->
<!DOCTYPE svg PUBLIC "-//W3C//DTD SVG 1.1//EN" "http://www.w3.org/Graphics/SVG/1.1/DTD/svg11.dtd">
<svg version="1.1" id="Layer_1" xmlns="http://www.w3.org/2000/svg" xmlns:xlink="http://www.w3.org/1999/xlink" x="0px" y="0px"
	 width="20px" height="16px" viewBox="0 0 20 16" enable-background="new 0 0 20 16" xml:space="preserve">
<path fill="#707F90" d="M17.494,12.34c0.029,0.24-0.041,0.45-0.221,0.631l-2.109,2.1c-0.1,0.109-0.221,0.199-0.371,0.27
	c-0.16,0.08-0.309,0.12-0.459,0.141l-0.09,0.01l-0.211,0.01c-0.199,0-0.529-0.029-0.98-0.1c-0.449-0.07-1-0.24-1.648-0.51
	c-0.65-0.271-1.391-0.681-2.211-1.221c-0.83-0.54-1.71-1.279-2.641-2.22c-0.739-0.729-1.35-1.431-1.84-2.101
	C4.223,8.68,3.833,8.07,3.533,7.5c-0.289-0.57-0.51-1.08-0.66-1.54c-0.149-0.46-0.25-0.86-0.3-1.19
	c-0.06-0.34-0.079-0.6-0.069-0.789l0.02-0.32c0.02-0.15,0.07-0.301,0.141-0.45c0.08-0.149,0.17-0.28,0.27-0.37l2.109-2.119
	C5.193,0.57,5.363,0.5,5.552,0.5c0.141,0,0.261,0.04,0.371,0.12c0.1,0.08,0.189,0.18,0.27,0.29l1.7,3.23
	c0.09,0.17,0.121,0.35,0.08,0.549C7.923,4.9,7.833,5.07,7.703,5.2L6.923,5.98C6.903,6,6.882,6.04,6.863,6.09
	c-0.01,0.04-0.02,0.08-0.02,0.11C6.882,6.43,6.983,6.68,7.123,6.971c0.131,0.25,0.33,0.559,0.59,0.93
	C7.983,8.26,8.354,8.68,8.844,9.16c0.469,0.49,0.9,0.869,1.27,1.14s0.68,0.46,0.93,0.591c0.25,0.129,0.441,0.209,0.57,0.229
	l0.201,0.04l0.1-0.02c0.049-0.021,0.08-0.041,0.1-0.061l0.91-0.92c0.189-0.17,0.41-0.25,0.67-0.25c0.18,0,0.32,0.029,0.43,0.09h0.01
	l3.07,1.811C17.324,11.95,17.453,12.13,17.494,12.34z"/>
</svg>
