<?xml version="1.0" encoding="utf-8"?>
<!-- Generator: Adobe Illustrator 16.0.0, SVG Export Plug-In . SVG Version: 6.00 Build 0)  -->
<!DOCTYPE svg PUBLIC "-//W3C//DTD SVG 1.1//EN" "http://www.w3.org/Graphics/SVG/1.1/DTD/svg11.dtd">
<svg version="1.1" id="Layer_1" xmlns="http://www.w3.org/2000/svg" xmlns:xlink="http://www.w3.org/1999/xlink" x="0px" y="0px"
	 width="20px" height="16px" viewBox="0 0 20 16" enable-background="new 0 0 20 16" xml:space="preserve">
<g>
	<g>
		<path fill="#A3ACB8" d="M15.113,13.63c-3,3-7.69,2.82-10.49-0.26c-2.72-3-2.72-7.74,0-10.74c2.8-3.08,7.49-3.26,10.49-0.26
			C18.184,5.439,18.184,10.561,15.113,13.63z"/>
		<path fill="#FFFFFF" d="M6.244,7h2.5V4.63c0-0.399,0.3-0.729,0.68-0.729c0.19-0.01,0.99,0.07,1.12,0.199
			c0.121,0.131,0.201,0.311,0.201,0.5V7h2.59c0.188,0,0.052,0.08,0.181,0.21c0.131,0.13,0.211,0.86,0.211,1.06
			c0,0.4-0.32,0.73-0.711,0.73h-2.271v2.67c0,0.4-0.63,0.439-1,0.43c-0.38,0-1-0.33-1-0.729V9h-2.5c-0.359,0-0.34-0.609-0.34-1
			S5.884,7,6.244,7z"/>
	</g>
</g>
</svg>
