<?xml version="1.0" encoding="utf-8"?>
<!-- Generator: Adobe Illustrator 16.0.0, SVG Export Plug-In . SVG Version: 6.00 Build 0)  -->
<!DOCTYPE svg PUBLIC "-//W3C//DTD SVG 1.1//EN" "http://www.w3.org/Graphics/SVG/1.1/DTD/svg11.dtd">
<svg version="1.1" id="Layer_1" xmlns="http://www.w3.org/2000/svg" xmlns:xlink="http://www.w3.org/1999/xlink" x="0px" y="0px"
	 width="15px" height="15px" viewBox="0 0 15 15" enable-background="new 0 0 15 15" xml:space="preserve">
<path fill-rule="evenodd" clip-rule="evenodd" fill="#D74445" d="M0,7.5C0,11.641,3.36,15,7.5,15S15,11.641,15,7.5
	C15,3.36,11.641,0,7.5,0S0,3.36,0,7.5z M10.301,5.68L8.48,7.5l1.82,1.82c0.27,0.27,0.27,0.709,0,0.979
	c-0.141,0.13-0.32,0.2-0.49,0.2c-0.18,0-0.359-0.07-0.49-0.2L7.5,8.48L5.681,10.3c-0.13,0.13-0.31,0.2-0.49,0.2
	c-0.17,0-0.35-0.07-0.49-0.2c-0.27-0.271-0.27-0.71,0-0.979l1.82-1.82l-1.82-1.82c-0.27-0.27-0.27-0.71,0-0.98s0.71-0.27,0.98,0
	L7.5,6.52L9.32,4.7c0.27-0.27,0.709-0.27,0.98,0C10.57,4.97,10.57,5.41,10.301,5.68z"/>
</svg>
