<?xml version="1.0" encoding="utf-8"?>
<!-- Generator: Adobe Illustrator 16.0.0, SVG Export Plug-In . SVG Version: 6.00 Build 0)  -->
<!DOCTYPE svg PUBLIC "-//W3C//DTD SVG 1.1//EN" "http://www.w3.org/Graphics/SVG/1.1/DTD/svg11.dtd">
<svg version="1.1" id="Layer_1" xmlns="http://www.w3.org/2000/svg" xmlns:xlink="http://www.w3.org/1999/xlink" x="0px" y="0px"
	 width="21.59px" height="21.14px" viewBox="0 0 21.59 21.14" enable-background="new 0 0 21.59 21.14" xml:space="preserve">
<path fill-rule="evenodd" clip-rule="evenodd" fill="#6C7A89" d="M14.26,10.571c0,1.859-1.56,3.389-3.47,3.389
	c-1.899,0-3.46-1.529-3.46-3.389c0-1.871,1.561-3.391,3.46-3.391C12.7,7.18,14.26,8.7,14.26,10.571z M18.62,8.14l-0.54-1.29
	c0,0,1.27-2.86,1.15-2.97L17.55,2.24c-0.11-0.11-2.97,1.19-2.97,1.19L13.26,2.9c0,0-1.17-2.9-1.33-2.9H9.561
	C9.4,0,8.32,2.91,8.32,2.91L7,3.44c0,0-2.92-1.24-3.04-1.13L2.29,3.95C2.17,4.06,3.51,6.87,3.51,6.87L2.96,8.16
	c0,0-2.96,1.14-2.96,1.3v2.32C0,11.94,2.97,13,2.97,13l0.54,1.289c0,0-1.26,2.861-1.15,2.971l1.68,1.641
	C4.15,19.01,7.01,17.7,7.01,17.7l1.32,0.541c0,0,1.17,2.9,1.33,2.9h2.369c0.16,0,1.24-2.91,1.24-2.91L14.6,17.7
	c0,0,2.91,1.24,3.021,1.131l1.68-1.641c0.12-0.119-1.22-2.92-1.22-2.92l0.55-1.289c0,0,2.96-1.141,2.96-1.301V9.36
	C21.59,9.2,18.62,8.14,18.62,8.14z"/>
</svg>
