<?xml version="1.0" encoding="utf-8"?>
<!-- Generator: Adobe Illustrator 16.0.0, SVG Export Plug-In . SVG Version: 6.00 Build 0)  -->
<!DOCTYPE svg PUBLIC "-//W3C//DTD SVG 1.1//EN" "http://www.w3.org/Graphics/SVG/1.1/DTD/svg11.dtd">
<svg version="1.1" id="Layer_1" xmlns="http://www.w3.org/2000/svg" xmlns:xlink="http://www.w3.org/1999/xlink" x="0px" y="0px"
	 width="20px" height="16px" viewBox="0 0 20 16" enable-background="new 0 0 20 16" xml:space="preserve">
<path fill="#5FA9DD" d="M20,1.89c-0.74,0.32-1.529,0.54-2.359,0.64c0.85-0.5,1.5-1.29,1.81-2.23c-0.8,0.46-1.671,0.79-2.61,0.98
	C16.09,0.49,15.029,0,13.85,0C11.58,0,9.74,1.81,9.74,4.04c0,0.32,0.04,0.62,0.11,0.92C6.44,4.79,3.42,3.18,1.39,0.74
	C1.04,1.33,0.84,2.03,0.84,2.77c0,1.4,0.72,2.64,1.82,3.36c-0.67-0.02-1.3-0.2-1.86-0.51v0.05c0,1.96,1.42,3.59,3.301,3.971
	C3.75,9.73,3.39,9.779,3.01,9.779c-0.26,0-0.52-0.029-0.77-0.079c0.52,1.61,2.04,2.78,3.829,2.81c-1.399,1.08-3.17,1.73-5.09,1.73
	c-0.33,0-0.66-0.02-0.979-0.061C1.819,15.33,3.97,16,6.29,16c7.55,0,11.67-6.16,11.67-11.5l-0.01-0.52C18.75,3.41,19.45,2.7,20,1.89
	z"/>
</svg>
