<?xml version="1.0" encoding="utf-8"?>
<!-- Generator: Adobe Illustrator 16.0.0, SVG Export Plug-In . SVG Version: 6.00 Build 0)  -->
<!DOCTYPE svg PUBLIC "-//W3C//DTD SVG 1.1//EN" "http://www.w3.org/Graphics/SVG/1.1/DTD/svg11.dtd">
<svg version="1.1" id="Layer_1" xmlns="http://www.w3.org/2000/svg" xmlns:xlink="http://www.w3.org/1999/xlink" x="0px" y="0px"
	 width="165px" height="24px" viewBox="0 0 165 24" enable-background="new 0 0 165 24" xml:space="preserve">
<g>
	<path fill-rule="evenodd" clip-rule="evenodd" fill="#7A5A38" d="M62.71,21.96c0-0.76,0.12-1.21,0.77-1.21s0.77,0.45,0.77,1.21
		H62.71z M64.66,22.279c0-1.01,0-1.85-1.18-1.85c-0.76,0-1.18,0.45-1.18,1.43V22.7c0,1.04,0.59,1.271,1.18,1.271
		c0.69,0,1.13-0.281,1.18-1.101h-0.43c0.01,0.45-0.24,0.78-0.75,0.78c-0.64,0-0.77-0.631-0.77-1.101v-0.271H64.66z M60.27,19.029
		h-0.41V23.9h0.41V19.029z M57.65,19.029h-0.51v0.511h0.51V19.029z M57.6,20.49h-0.41v3.41h0.41V20.49z M53.29,23.9V21.76
		c0-0.76,0.38-1.01,0.74-1.01c0.48,0,0.63,0.37,0.63,0.77V23.9h0.41v-2.4c0-0.45-0.09-1.07-0.94-1.07c-0.36,0-0.63,0.2-0.82,0.48
		l-0.02-1.881h-0.4V23.9H53.29z M49.79,24c1.15,0,1.23-1.141,1.23-1.49h-0.46c0,0.631-0.21,1.131-0.77,1.131
		c-1.03,0-1.05-0.881-1.05-2.17c0-1.301,0.02-2.171,1.05-2.171c0.62,0,0.77,0.5,0.77,1.05h0.43c0-0.439-0.02-1.42-1.2-1.42
		c-1.47,0-1.48,1.221-1.48,2.541C48.31,22.779,48.32,24,49.79,24z M41.82,21.96c0-0.76,0.12-1.21,0.77-1.21
		c0.65,0,0.77,0.45,0.77,1.21H41.82z M43.77,22.279c0-1.01,0-1.85-1.18-1.85c-0.77,0-1.18,0.45-1.18,1.43V22.7
		c0,1.04,0.59,1.271,1.18,1.271c0.68,0,1.13-0.281,1.18-1.101h-0.43c0.01,0.45-0.24,0.78-0.75,0.78c-0.65,0-0.77-0.631-0.77-1.101
		v-0.271H43.77z M39.14,23.9h0.4c-0.02-0.11-0.04-0.33-0.04-0.67v-4.201h-0.41v1.811c-0.22-0.27-0.53-0.41-0.84-0.41
		c-1.05,0-1.05,1.11-1.05,1.771c0,0.79,0.05,1.771,1.04,1.771c0.4,0,0.66-0.171,0.87-0.49L39.14,23.9z M38.35,23.65
		c-0.44,0-0.74-0.17-0.74-1.44c0-0.8,0-1.46,0.73-1.46c0.76,0,0.76,0.95,0.76,1.15v0.609C39.1,23.34,38.74,23.65,38.35,23.65z
		 M31.58,20.75c0.67,0,0.77,0.561,0.77,1.45s-0.1,1.45-0.77,1.45s-0.77-0.561-0.77-1.45S30.91,20.75,31.58,20.75z M31.58,23.971
		c0.8,0,1.18-0.521,1.18-1.4v-0.74c0-0.88-0.38-1.4-1.18-1.4c-0.8,0-1.18,0.521-1.18,1.4v0.74C30.4,23.45,30.78,23.971,31.58,23.971
		z M28.62,21.471c0.04-0.711-0.36-1.041-0.95-1.041c-0.47,0-0.85,0.17-1.03,0.66c-0.09,0.26-0.1,0.79-0.1,1.131
		c0,0.84,0,1.75,1.16,1.75c0.31,0,0.96-0.15,0.93-1.07h-0.41c-0.02,0.41-0.08,0.75-0.62,0.75c-0.63,0-0.63-0.82-0.63-1.43
		c0-0.461,0.04-0.921,0.1-1.08c0.08-0.25,0.29-0.391,0.55-0.391c0.46,0,0.62,0.3,0.6,0.721H28.62z M22.93,21.76
		c0-0.76,0.37-1.01,0.74-1.01c0.47,0,0.63,0.37,0.63,0.77V23.9h0.41v-2.4c0-0.45-0.09-1.07-0.94-1.07c-0.37,0-0.63,0.2-0.83,0.48
		l-0.01-0.42h-0.41v3.41h0.41V21.76z M20.12,23.9h0.42c-0.04-0.391-0.04-0.61-0.04-0.851v-1.72c0-0.87-0.72-0.9-1.06-0.9
		c-0.6,0-1.11,0.25-1.14,0.91h0.43c0-0.41,0.3-0.59,0.67-0.59c0.55,0,0.69,0.3,0.69,0.8v0.29c-0.69,0.051-1.89-0.07-1.89,1.131
		c0,0.59,0.33,1,0.94,1c0.42,0,0.75-0.16,0.97-0.48L20.12,23.9z M20.09,22.779c0,0.451-0.37,0.871-0.84,0.871
		c-0.42,0-0.62-0.32-0.62-0.7c0-0.841,0.88-0.771,1.46-0.79V22.779z M14.28,21.561h0.88c0.75,0,0.88,0.59,0.88,1.02
		c0,0.72-0.35,0.96-1.07,0.96h-0.69V21.561z M15.23,23.9c0.82,0,1.24-0.471,1.24-1.351c0-0.62-0.17-1.04-0.81-1.18
		c0.61-0.181,0.71-0.591,0.71-1.17c0-0.86-0.39-1.171-1.16-1.171h-1.36V23.9H15.23z M14.28,21.2v-1.81h0.86
		c0.35,0,0.8,0.02,0.8,0.83c0,0.549-0.2,0.979-0.82,0.979H14.28z M9.01,19.029H8.6V23.9h0.41V19.029z M4.62,21.96
		c0-0.76,0.12-1.21,0.77-1.21s0.77,0.45,0.77,1.21H4.62z M6.57,22.279c0-1.01,0-1.85-1.18-1.85c-0.77,0-1.18,0.45-1.18,1.43V22.7
		c0,1.04,0.59,1.271,1.18,1.271c0.68,0,1.13-0.281,1.18-1.101H6.14c0.01,0.45-0.24,0.78-0.75,0.78c-0.64,0-0.77-0.631-0.77-1.101
		v-0.271H6.57z M1.94,23.9h0.4c-0.02-0.11-0.04-0.33-0.04-0.67v-4.201H1.89v1.811c-0.22-0.27-0.53-0.41-0.84-0.41
		C0,20.43,0,21.54,0,22.2c0,0.79,0.05,1.771,1.04,1.771c0.4,0,0.66-0.171,0.87-0.49L1.94,23.9z M1.15,23.65
		c-0.44,0-0.74-0.17-0.74-1.44c0-0.8,0-1.46,0.73-1.46c0.76,0,0.76,0.95,0.76,1.15v0.609C1.9,23.34,1.54,23.65,1.15,23.65z"/>
	<path fill-rule="evenodd" clip-rule="evenodd" fill="#006141" d="M98.141,5.76c0-3.41-1.66-5.539-5.461-5.539h-5.369V11.92h4.529
		C95.9,11.92,98.141,9.07,98.141,5.76z M96.49,5.76c0,3.82-2.35,5.5-5.08,5.5h-2.539V0.85h2.969C94.74,0.85,96.49,2.43,96.49,5.76z
		 M117.49,0.221h-1.15l-3.07,9.829h-0.16l-3.148-9.829h-1.23l-3.311,9.829h-0.15l-3.049-9.829h-1.531l3.621,11.699h1.24l3.34-9.641
		h0.15l3.059,9.641h1.301L117.49,0.221z M129.26,11.92L124.061,0h-0.391l-5.4,11.92h1.24l1.781-4.641h4.379l1.801,4.641H129.26z
		 M125.43,6.54h-3.85l1.891-4.47L125.43,6.54z M140.881,11.92L136.08,6c2.061-0.26,4.041-1.08,4.041-3.09
		c0-1.53-0.9-2.689-3.75-2.689h-3.941V11.92h1.551V6.141h0.289l4.602,5.779H140.881z M138.58,2.91c0,1.79-1.709,2.57-3.199,2.57
		h-1.4V0.88h2.359C137.689,0.88,138.58,1.59,138.58,2.91z M154.881,5.76c0-3.41-1.65-5.539-5.451-5.539h-5.379V11.92h4.539
		C152.65,11.92,154.881,9.07,154.881,5.76z M153.24,5.76c0,3.82-2.35,5.5-5.08,5.5h-2.539V0.85h2.969
		C151.49,0.85,153.24,2.43,153.24,5.76z M165,8.52c0-1.939-1.459-2.729-2.859-3.289c-1.361-0.53-2.611-0.94-2.611-2.451
		c0-1.17,0.98-2.039,2.221-2.039c1.029,0,1.77,0.51,2.109,1.51h0.16l0.48-1.4C163.84,0.27,163,0,161.939,0
		c-2.039,0-3.729,1.061-3.729,3.26c0,2.16,1.83,2.721,3.359,3.32c1.131,0.46,2.029,1.061,2.029,2.3c0,1.351-1.049,2.521-2.59,2.521
		c-1.24,0-2.109-0.74-2.639-1.82h-0.131l-0.35,1.55c0.799,0.511,1.719,1.011,2.85,1.011C163,12.141,165,11.029,165,8.52z
		 M9.48,8.439c0-1.819-1.37-2.619-3.19-2.789C7.76,5.24,9.04,4.3,9.04,2.76c0-1.88-1.49-2.439-3.41-2.439H0.4V12.01h4.68
		C7.87,12.01,9.48,10.51,9.48,8.439z M7.53,3.07c0,1.459-1.38,2.279-2.64,2.279H1.94V0.98h3C6.48,0.98,7.53,1.51,7.53,3.07z
		 M7.87,8.58c0,1.98-1.56,2.77-2.79,2.77H1.94V6.01h2.95C6.37,6.01,7.87,6.811,7.87,8.58z M22.14,11.971L16.94,0.05h-0.39
		l-5.4,11.921h1.23l1.79-4.631h4.38l1.8,4.631H22.14z M18.31,6.6h-3.85l1.88-4.47L18.31,6.6z M35.4,11.971V0.279h-0.98v9l-8.66-9
		h-0.45v11.691h1V2.95l8.65,9.021H35.4z M49,0.84c-1.03-0.449-2.3-0.79-3.86-0.79c-3.74,0-6.42,2.351-6.42,6.14
		c0,3.371,2.07,6,6.21,6c1.48,0,2.7-0.299,3.75-0.959v-1.11h-0.2c-0.61,0.69-1.96,1.38-3.34,1.38c-3.22,0-4.73-2.49-4.73-5.311
		c0-3.359,1.93-5.43,4.73-5.43c1.41,0,2.33,0.43,3.28,1.37h0.21L49,0.84z M65.2,5.859c0-4.02-3.23-5.819-6.42-5.819
		c-3.8,0-6.6,2.2-6.6,6.28c0,3.27,2.35,5.869,6.36,5.869C62.62,12.189,65.2,9.7,65.2,5.859z M63.53,5.859
		c0,2.91-1.55,5.74-4.98,5.74c-2.68,0-4.7-1.93-4.7-5.279c0-2.961,1.5-5.7,4.93-5.7C61.76,0.62,63.53,2.75,63.53,5.859z
		 M83.621,11.92v-0.811H77.07V6.061H83.1V5.26H77.07v-4.23h6.551V0.23H75.52V11.92H83.621z"/>
	<path fill-rule="evenodd" clip-rule="evenodd" fill="#006141" d="M98.141,5.76c0-3.41-1.66-5.539-5.461-5.539h-5.369V11.92h4.529
		C95.9,11.92,98.141,9.07,98.141,5.76z M96.49,5.76c0,3.82-2.35,5.5-5.08,5.5h-2.539V0.85h2.969C94.74,0.85,96.49,2.43,96.49,5.76z
		 M117.49,0.221h-1.15l-3.07,9.829h-0.16l-3.148-9.829h-1.23l-3.311,9.829h-0.15l-3.049-9.829h-1.531l3.621,11.699h1.24l3.34-9.641
		h0.15l3.059,9.641h1.301L117.49,0.221z M129.26,11.92L124.061,0h-0.391l-5.4,11.92h1.24l1.781-4.641h4.379l1.801,4.641H129.26z
		 M125.43,6.54h-3.85l1.891-4.47L125.43,6.54z M140.881,11.92L136.08,6c2.061-0.26,4.041-1.08,4.041-3.09
		c0-1.53-0.9-2.689-3.75-2.689h-3.941V11.92h1.551V6.141h0.289l4.602,5.779H140.881z M138.58,2.91c0,1.79-1.709,2.57-3.199,2.57
		h-1.4V0.88h2.359C137.689,0.88,138.58,1.59,138.58,2.91z M154.881,5.76c0-3.41-1.65-5.539-5.451-5.539h-5.379V11.92h4.539
		C152.65,11.92,154.881,9.07,154.881,5.76z M153.24,5.76c0,3.82-2.35,5.5-5.08,5.5h-2.539V0.85h2.969
		C151.49,0.85,153.24,2.43,153.24,5.76z M165,8.52c0-1.939-1.459-2.729-2.859-3.289c-1.361-0.53-2.611-0.94-2.611-2.451
		c0-1.17,0.98-2.039,2.221-2.039c1.029,0,1.77,0.51,2.109,1.51h0.16l0.48-1.4C163.84,0.27,163,0,161.939,0
		c-2.039,0-3.729,1.061-3.729,3.26c0,2.16,1.83,2.721,3.359,3.32c1.131,0.46,2.029,1.061,2.029,2.3c0,1.351-1.049,2.521-2.59,2.521
		c-1.24,0-2.109-0.74-2.639-1.82h-0.131l-0.35,1.55c0.799,0.511,1.719,1.011,2.85,1.011C163,12.141,165,11.029,165,8.52z
		 M9.48,8.439c0-1.819-1.37-2.619-3.19-2.789C7.76,5.24,9.04,4.3,9.04,2.76c0-1.88-1.49-2.439-3.41-2.439H0.4V12.01h4.68
		C7.87,12.01,9.48,10.51,9.48,8.439z M7.53,3.07c0,1.459-1.38,2.279-2.64,2.279H1.94V0.98h3C6.48,0.98,7.53,1.51,7.53,3.07z
		 M7.87,8.58c0,1.98-1.56,2.77-2.79,2.77H1.94V6.01h2.95C6.37,6.01,7.87,6.811,7.87,8.58z M22.14,11.971L16.94,0.05h-0.39
		l-5.4,11.921h1.23l1.79-4.631h4.38l1.8,4.631H22.14z M18.31,6.6h-3.85l1.88-4.47L18.31,6.6z M35.4,11.971V0.279h-0.98v9l-8.66-9
		h-0.45v11.691h1V2.95l8.65,9.021H35.4z M49,0.84c-1.03-0.449-2.3-0.79-3.86-0.79c-3.74,0-6.42,2.351-6.42,6.14
		c0,3.371,2.07,6,6.21,6c1.48,0,2.7-0.299,3.75-0.959v-1.11h-0.2c-0.61,0.69-1.96,1.38-3.34,1.38c-3.22,0-4.73-2.49-4.73-5.311
		c0-3.359,1.93-5.43,4.73-5.43c1.41,0,2.33,0.43,3.28,1.37h0.21L49,0.84z M65.2,5.859c0-4.02-3.23-5.819-6.42-5.819
		c-3.8,0-6.6,2.2-6.6,6.28c0,3.27,2.35,5.869,6.36,5.869C62.62,12.189,65.2,9.7,65.2,5.859z M63.53,5.859
		c0,2.91-1.55,5.74-4.98,5.74c-2.68,0-4.7-1.93-4.7-5.279c0-2.961,1.5-5.7,4.93-5.7C61.76,0.62,63.53,2.75,63.53,5.859z
		 M83.621,11.92v-0.811H77.07V6.061H83.1V5.26H77.07v-4.23h6.551V0.23H75.52V11.92H83.621z"/>
</g>
</svg>
