<?xml version="1.0" encoding="utf-8"?>
<!-- Generator: Adobe Illustrator 16.0.0, SVG Export Plug-In . SVG Version: 6.00 Build 0)  -->
<!DOCTYPE svg PUBLIC "-//W3C//DTD SVG 1.1//EN" "http://www.w3.org/Graphics/SVG/1.1/DTD/svg11.dtd">
<svg version="1.1" id="Layer_1" xmlns="http://www.w3.org/2000/svg" xmlns:xlink="http://www.w3.org/1999/xlink" x="0px" y="0px"
	 width="143.65px" height="24px" viewBox="0 0 143.65 24" enable-background="new 0 0 143.65 24" xml:space="preserve">
<g>
	<path fill="#FFFFFF" d="M111.1,4.29h0.381c0.049,0,2.47-1.54,3.229-2.19c-0.29-0.06-0.76,0.22-0.94,0.22h-0.66
		c-0.1-0.11-0.409-0.22-0.42-0.22c-0.14-0.15-0.84-1.5-1.959-1.5h-0.42c-0.021,0-0.931,0.29-2.61,1.58
		c-1.021,0.79-2.2,1.25-2.2,2.06v8.12c-0.08,0.07-0.29,0.39-0.32,0.47c0.15,0.029,0.57-0.27,1.91-1.16c1.33-0.89,1.59-1.31,1.59-1.6
		V2.28c0-0.11,0.141-0.28,0.23-0.28c0.33,0,0.66,0.74,0.66,0.88v11.3c-0.051-0.029-0.061-0.039-0.07-0.039
		c-0.01,0.01,0.2,0.25-1.34,0.18c-1.29-0.051-2.689-0.82-3.12-1.07c-1.42-0.83-2.66-3.13-2.761-4.68
		c-0.159-2.68,0.851-3.65,2.341-5.35c0.97-1.12,3.489-2.34,3.64-2.72h-0.189c-0.041,0.03-0.561,0.28-0.561,0.28
		c-0.08,0.01-0.75-0.03-1.3,0c-3.78,0.24-6.979,3.99-6.681,8.55c0.311,4.58,3.201,7.529,7.281,7.5c2.33-0.01,3.959-0.84,5.42-2.51
		l0.689-1.311v-0.32h-0.13c-0.09,0.121-1.79,1.351-2.25,1.351c-0.069,0-0.05,0.021-0.181,0V3.87C110.66,4.02,110.93,4.29,111.1,4.29
		z"/>
	<path fill="#FFFFFF" d="M65.58,4.29h0.37c0.06,0,2.48-1.54,3.23-2.19c-0.28-0.06-0.75,0.22-0.94,0.22h-0.65
		c-0.1-0.11-0.41-0.22-0.42-0.22c-0.14-0.15-0.84-1.5-1.97-1.5h-0.41c-0.02,0-0.93,0.29-2.62,1.58c-1.01,0.79-2.19,1.25-2.19,2.06
		v8.12c-0.09,0.07-0.29,0.39-0.32,0.47c0.14,0.029,0.56-0.27,1.91-1.16c1.32-0.89,1.59-1.31,1.59-1.6V2.28
		c0-0.11,0.13-0.28,0.23-0.28c0.33,0,0.66,0.74,0.66,0.88v11.3c-0.05-0.029-0.07-0.039-0.07-0.039c-0.01,0.01,0.2,0.25-1.34,0.18
		c-1.3-0.051-2.7-0.82-3.13-1.07c-1.42-0.83-2.65-3.13-2.76-4.68C56.6,5.89,57.6,4.92,59.1,3.22c0.97-1.12,3.48-2.34,3.64-2.72
		h-0.19c-0.05,0.03-0.56,0.28-0.56,0.28c-0.09,0.01-0.76-0.03-1.31,0c-3.77,0.24-6.98,3.99-6.67,8.55c0.31,4.58,3.2,7.529,7.27,7.5
		c2.33-0.01,3.97-0.84,5.42-2.51l0.7-1.311v-0.32h-0.14c-0.08,0.121-1.78,1.351-2.24,1.351c-0.07,0-0.06,0.021-0.19,0V3.87
		C65.14,4.02,65.41,4.29,65.58,4.29z"/>
	<path fill="#FFFFFF" d="M4.88,0h0.86c0.62,0,2.72,0.59,2.72,0.59h0.36c0.15,0,0.37-0.1,0.46-0.17c0.06,0.02,0.11,0.02,0.19,0.09
		l-3.6,2.54c0,0-1.09,0.55-1.09,1.06v6.4l-3.55,2.461c0.05-0.341,0.5-0.641,0.5-1.141V5.51c0-0.49,3.41-2.27,3.41-2.77
		s-2-0.91-2-0.91c-0.64-0.03-0.9-0.03-1.55,0C0.96,1.85,0.25,2.25,0,2.24C0.77,1.72,2.82,0,4.88,0z"/>
	<path fill-rule="evenodd" clip-rule="evenodd" fill="#FFFFFF" d="M11.1,3.29v4.09c0.9-0.54,1.46-0.82,1.46-1.55
		C12.56,4.87,11.1,3.29,11.1,3.29z M11.1,8.65v5.59c0,0.279,0.49,0.51,0.77,0.51c0.14,0-0.05,0.1,0.18,0V9.51
		C12.05,9.17,11.24,8.69,11.1,8.65z M12.15,0.14c0.54,0,0.88,0.59,1.82,1.83c0.23,0.31,1.32,1.63,1.32,2.27v0.5
		c0,1.29-3.42,2.59-3.42,3.14c0,0.36,1.8,0.19,2.6,0.72c0.77,0.51,1.08,1.59,1.08,2.19v1.54c0,0.93-1.27,1.279-2.82,2.46
		c-0.68,0.521-3.01,2.09-3.18,2.09c0,0-2.66-1.45-3.96-1.45H3.87c-0.73,0-2.5,0.641-2.64,0.641c0,0,2.68-2.65,5.41-2.65h1.83
		c0.37,0,1.66,0.53,1.99,0.65V2.51c0-0.11-0.15-0.32-0.36-0.32c-0.51,0-0.86,0.92-0.86,0.96v6.86c0,0.32-1.19,1.23-1.82,1.6
		c-0.95,0.54-1.57,1.07-2.14,1.361V12.84c0,0,0.49-0.55,0.49-0.88V4.51c0-0.09,0.81-1.1,3.01-2.37C10.06,1.4,11.36,0.14,12.15,0.14z
		"/>
	<path fill-rule="evenodd" clip-rule="evenodd" fill="#FFFFFF" d="M22.04,9.48c0-1.16-0.33-1.53-1.35-1.53
		c-0.61,0-1.38,0.18-2.28,0.53c-0.08,0.04-0.16,0.06-0.22,0.06c-0.1,0-0.16-0.06-0.2-0.2l-0.43-1.23c-0.02-0.05-0.04-0.16-0.04-0.22
		c0-0.43,1.85-0.94,3.48-0.94c1.61,0,2.71,0.53,3.17,1.57c0.21,0.43,0.29,0.92,0.29,1.69v4.16c0,0.89,0.12,1.479,0.47,2.19
		c0.04,0.09,0.06,0.17,0.06,0.229c0,0.08-0.06,0.16-0.16,0.2l-1.59,0.63c-0.06,0.04-0.19,0.06-0.25,0.06
		c-0.18,0-0.38-0.38-0.61-1.199c-0.81,0.84-1.54,1.16-2.6,1.16c-1.88,0-3.06-1.201-3.06-3.07c0-1.811,0.98-2.89,3.04-3.28
		c0.53-0.12,1.16-0.16,2.28-0.18V9.48z M22.04,11.79c-2.04,0-2.85,0.46-2.85,1.64c0,0.791,0.57,1.4,1.3,1.4
		c0.55,0,1.06-0.26,1.55-0.79V11.79z"/>
	<path fill="#FFFFFF" d="M28.29,5.89c0.06-0.02,0.16-0.04,0.2-0.04c0.24,0,0.51,0.51,0.73,1.4c1.02-0.93,1.9-1.3,3.06-1.3
		c1.81,0,2.62,1,2.62,3.22v6.84c0,0.311-0.04,0.35-0.34,0.35h-1.9c-0.3,0-0.34-0.039-0.34-0.35V9.74c0-1.2-0.35-1.71-1.16-1.71
		c-0.59,0-1.06,0.22-1.77,0.83v7.15c0,0.311-0.05,0.35-0.35,0.35h-1.89c-0.31,0-0.35-0.039-0.35-0.35V9.17
		c0-0.88-0.14-1.61-0.43-2.22c-0.04-0.08-0.06-0.14-0.06-0.2s0.06-0.15,0.16-0.19L28.29,5.89z"/>
	<path fill="#FFFFFF" d="M43.6,15.359c0.06,0.16,0.06,0.16,0.06,0.25c0,0.5-1.57,1.101-2.95,1.101c-2.77,0-4.38-1.899-4.38-5.18
		c0-3.46,1.79-5.58,4.7-5.58c1.24,0,2.89,0.65,2.89,1.16c0,0.06-0.02,0.14-0.06,0.22l-0.71,1.31c-0.04,0.08-0.12,0.14-0.19,0.14
		c-0.05,0-0.12-0.02-0.2-0.08c-0.75-0.55-1.12-0.69-1.73-0.69c-1.38,0-2.02,1.06-2.02,3.42c0,2.22,0.64,3.22,2.04,3.22
		c0.57,0,1.08-0.18,1.67-0.57c0.08-0.061,0.16-0.1,0.23-0.1c0.05,0,0.12,0.06,0.16,0.14L43.6,15.359z"/>
	<path fill-rule="evenodd" clip-rule="evenodd" fill="#FFFFFF" d="M52.9,11.31c0,3.32-1.69,5.4-4.42,5.4c-2.79,0-4.44-2-4.44-5.38
		c0-1.67,0.39-2.93,1.18-3.89c0.88-1.04,1.88-1.49,3.34-1.49C51.23,5.95,52.9,8.01,52.9,11.31z M46.79,11.33
		c0,2.359,0.49,3.32,1.67,3.32c1.2,0,1.69-0.98,1.69-3.3c0-2.4-0.49-3.34-1.71-3.34C47.28,8.01,46.79,8.99,46.79,11.33z"/>
	<path fill="#FFFFFF" d="M70.01,6.01c0.16-0.06,0.16-0.06,0.24-0.06c0.24,0,0.55,0.61,0.77,1.59c0.43-0.48,0.49-0.59,0.7-0.79
		c0.5-0.51,1.15-0.8,1.85-0.8c0.61,0,1.16,0.23,1.16,0.45c0,0.06-0.02,0.14-0.04,0.22l-0.63,1.65c-0.04,0.13-0.1,0.19-0.17,0.19
		c-0.04,0-0.08-0.02-0.14-0.04c-0.28-0.1-0.57-0.17-0.81-0.17c-0.43,0-0.94,0.31-1.55,0.98v6.78c0,0.311-0.04,0.35-0.35,0.35h-1.89
		c-0.31,0-0.34-0.039-0.34-0.35V9.82c0-1.16-0.13-1.73-0.62-2.83c-0.02-0.06-0.04-0.12-0.04-0.18c0-0.08,0.08-0.16,0.21-0.21
		L70.01,6.01z"/>
	<path fill-rule="evenodd" clip-rule="evenodd" fill="#FFFFFF" d="M76.95,12.02c0.04,1.75,0.75,2.57,2.26,2.57
		c0.75,0,1.55-0.23,2.319-0.63c0.101-0.06,0.201-0.09,0.261-0.09c0.101,0,0.17,0.06,0.229,0.19l0.51,1.219
		C82.59,15.4,82.59,15.42,82.59,15.5c0,0.23-0.17,0.35-0.84,0.63c-0.891,0.39-1.811,0.58-2.811,0.58c-1.299,0-2.319-0.33-3.029-1
		c-0.98-0.88-1.53-2.45-1.53-4.3c0-3.28,1.771-5.46,4.46-5.46s4.03,1.86,4.03,5.56c0,0.41-0.08,0.51-0.45,0.51H76.95z M80.16,10.13
		c-0.03-1.69-0.439-2.32-1.48-2.32c-1.039,0-1.51,0.65-1.689,2.32H80.16z"/>
	<path fill-rule="evenodd" clip-rule="evenodd" fill="#FFFFFF" d="M90.529,16.58c-0.09,0.04-0.149,0.061-0.209,0.061
		c-0.2,0-0.42-0.42-0.551-1.031c-0.89,0.721-1.869,1.101-2.85,1.101c-2.109,0-3.311-1.899-3.311-5.2c0-1.99,0.361-3.34,1.201-4.34
		c0.67-0.79,1.539-1.22,2.58-1.22c0.719,0,1.279,0.17,2.02,0.57V2.39c0-0.26,0.02-0.31,0.3-0.37l1.899-0.38l0.181-0.02
		c0.14,0,0.2,0.1,0.2,0.34v11.89c0,0.86,0.039,1.021,0.369,1.76C92.38,15.67,92.4,15.71,92.4,15.73c0,0.08-0.061,0.14-0.18,0.18
		L90.529,16.58z M89.41,8.38c-0.49-0.25-0.96-0.37-1.471-0.37c-1.279,0-1.75,0.89-1.75,3.36c0,2.36,0.471,3.34,1.59,3.34
		c0.631,0,1.181-0.239,1.631-0.71V8.38z"/>
	<path fill="#FFFFFF" d="M93.3,8.19c-0.31,0-0.35-0.04-0.35-0.34v-1.2c0-0.31,0.04-0.35,0.35-0.35h3.78c0.311,0,0.35,0.04,0.35,0.35
		v9.36c0,0.311-0.039,0.35-0.35,0.35h-1.891c-0.31,0-0.35-0.039-0.35-0.35V8.19H93.3z"/>
	<path fill="#FFFFFF" d="M117.95,7.13c0.84-0.79,1.729-1.18,2.81-1.18c0.98,0,1.811,0.41,2.24,1.1c0.311,0.51,0.41,1.06,0.41,2.1
		v6.86c0,0.301-0.04,0.35-0.35,0.35h-1.891c-0.3,0-0.35-0.049-0.35-0.35V9.74c0-1.24-0.301-1.71-1.11-1.71
		c-0.62,0-1.08,0.22-1.76,0.83v7.15c0,0.301-0.04,0.35-0.341,0.35h-1.899c-0.3,0-0.34-0.049-0.34-0.35V2.39
		c0-0.29,0.021-0.31,0.3-0.37l1.9-0.38c0.06-0.02,0.14-0.02,0.18-0.02c0.141,0,0.2,0.1,0.2,0.34V7.13z"/>
	<path fill="#FFFFFF" d="M124.529,8.19c-0.309,0-0.35-0.04-0.35-0.34v-1.2c0-0.31,0.041-0.35,0.35-0.35h3.781
		c0.31,0,0.35,0.04,0.35,0.35v9.36c0,0.311-0.04,0.35-0.35,0.35h-1.891c-0.3,0-0.34-0.039-0.34-0.35V8.19H124.529z"/>
	<path fill="#FFFFFF" d="M128.96,2.71l-1.29-1.29l-0.061-0.06c-0.219-0.22-0.279-0.22-0.489,0l-1.341,1.34
		c-0.219,0.22-0.219,0.27,0,0.49l0.5,0.5l0.851,0.85c0.21,0.22,0.28,0.22,0.49,0l1.34-1.34C129.18,2.99,129.18,2.93,128.96,2.71z"/>
	<path fill="#FFFFFF" d="M97.48,2.71l-1.291-1.29l-0.06-0.06c-0.22-0.22-0.28-0.22-0.489,0L94.3,2.7c-0.22,0.22-0.22,0.27,0,0.49
		l0.5,0.5l0.851,0.85c0.22,0.22,0.27,0.22,0.49,0l1.34-1.34C97.7,2.99,97.7,2.93,97.48,2.71z"/>
	<path fill="#FFFFFF" d="M133.08,1.66c0.199-0.04,0.199-0.04,0.24-0.04c0.14,0,0.209,0.1,0.209,0.34v10.61c0,1.14,0,1.18,0.041,1.35
		c0.08,0.28,0.22,0.4,0.51,0.4c0.22,0,0.4-0.041,0.67-0.12c0.061-0.021,0.12-0.021,0.141-0.021c0.08,0,0.139,0.041,0.159,0.12
		l0.41,1.671l0.021,0.079c0.02,0.05,0.02,0.06,0.02,0.08c0,0.271-1.08,0.58-2.05,0.58c-1.181,0-2-0.521-2.32-1.47
		c-0.17-0.471-0.19-0.721-0.19-2.49V2.41c0-0.22,0.101-0.35,0.311-0.39L133.08,1.66z"/>
	<path fill-rule="evenodd" clip-rule="evenodd" fill="#FFFFFF" d="M1.61,20.51l0.43-0.039c0.14-0.011,0.3-0.021,0.48-0.021
		c0.61,0,1.06,0.149,1.38,0.45c0.31,0.3,0.47,0.75,0.47,1.35s-0.16,1.04-0.48,1.32C3.57,23.859,3.1,24,2.47,24
		c-0.16,0-0.31-0.01-0.45-0.02l-0.41-0.041V20.51z M2.32,23.391l0.11,0.01h0.16c0.15,0,0.28-0.01,0.41-0.051
		c0.12-0.029,0.23-0.09,0.33-0.18c0.09-0.09,0.16-0.21,0.21-0.359c0.06-0.15,0.09-0.34,0.09-0.58c0-0.23-0.03-0.42-0.09-0.57
		c-0.05-0.15-0.12-0.27-0.21-0.36c-0.1-0.09-0.2-0.149-0.32-0.2c-0.12-0.029-0.25-0.05-0.38-0.05l-0.16,0.011H2.32V23.391z"/>
	<path fill="#FFFFFF" d="M5.3,20.51h1.95c0.02,0.09,0.03,0.19,0.03,0.29c0,0.101-0.01,0.21-0.03,0.3H6v0.75h0.99
		c0.02,0.101,0.03,0.2,0.03,0.301c0,0.1-0.01,0.199-0.03,0.289H6v0.91h1.29c0.02,0.09,0.02,0.19,0.02,0.291
		c0,0.109,0,0.209-0.02,0.299H5.3V20.51z"/>
	<path fill="#FFFFFF" d="M8.2,20.51c0.12-0.02,0.23-0.029,0.34-0.029s0.23,0.01,0.35,0.029v2.83h1.19l0.02,0.16v0.141v0.149
		l-0.02,0.149H8.2V20.51z"/>
	<path fill-rule="evenodd" clip-rule="evenodd" fill="#FFFFFF" d="M12.33,20.5c0.11-0.01,0.22-0.02,0.35-0.029
		c0.14-0.011,0.31-0.021,0.51-0.021c0.17,0,0.34,0.021,0.49,0.04c0.16,0.029,0.3,0.08,0.41,0.15c0.12,0.069,0.21,0.159,0.28,0.279
		c0.06,0.109,0.1,0.25,0.1,0.42c0,0.1-0.02,0.2-0.05,0.29c-0.03,0.091-0.07,0.16-0.12,0.229c-0.05,0.061-0.11,0.111-0.17,0.16
		c-0.07,0.041-0.13,0.07-0.2,0.08c0.08,0.01,0.16,0.03,0.25,0.061c0.08,0.04,0.17,0.09,0.24,0.16c0.08,0.07,0.14,0.16,0.19,0.27
		c0.05,0.11,0.08,0.24,0.08,0.391c0,0.199-0.04,0.379-0.12,0.51c-0.07,0.13-0.18,0.24-0.31,0.31c-0.13,0.08-0.29,0.13-0.46,0.16
		C13.63,23.99,13.44,24,13.25,24l-0.43-0.01c-0.15-0.01-0.31-0.02-0.49-0.051V20.5z M13.23,21.9c0.08,0,0.16-0.01,0.23-0.021
		c0.06-0.021,0.12-0.04,0.17-0.08c0.06-0.04,0.1-0.079,0.13-0.149c0.02-0.061,0.04-0.141,0.04-0.23c0-0.1-0.02-0.17-0.05-0.23
		c-0.04-0.06-0.08-0.109-0.13-0.14c-0.05-0.03-0.11-0.05-0.18-0.069c-0.06-0.01-0.13-0.01-0.19-0.01c-0.09,0-0.17,0-0.23,0.01v0.92
		H13.23z M13.02,23.42l0.16,0.01l0.16,0.01c0.07,0,0.13-0.01,0.21-0.02c0.07-0.01,0.14-0.04,0.21-0.07
		c0.06-0.039,0.11-0.09,0.15-0.16c0.05-0.06,0.06-0.149,0.06-0.25c0-0.1-0.01-0.18-0.04-0.25c-0.04-0.06-0.08-0.119-0.14-0.16
		c-0.06-0.039-0.13-0.069-0.21-0.079c-0.08-0.021-0.17-0.021-0.27-0.021h-0.29V23.42z"/>
	<path fill-rule="evenodd" clip-rule="evenodd" fill="#FFFFFF" d="M16.37,20.51l0.19-0.02l0.2-0.01l0.19,0.01l0.2,0.02l1.07,3.43
		c-0.13,0.021-0.26,0.031-0.38,0.031c-0.12,0-0.24-0.011-0.36-0.031l-0.19-0.689h-1.13l-0.2,0.689
		c-0.11,0.021-0.22,0.031-0.33,0.031c-0.11,0-0.23-0.011-0.35-0.031L16.37,20.51z M17.13,22.68l-0.39-1.439l-0.42,1.439H17.13z"/>
	<path fill="#FFFFFF" d="M18.96,20.51c0.11-0.02,0.2-0.029,0.29-0.029s0.19,0.01,0.29,0.029l1.33,2.19v-2.19
		c0.12-0.02,0.23-0.029,0.33-0.029c0.1,0,0.2,0.01,0.29,0.029v3.43c-0.1,0.021-0.2,0.031-0.28,0.031c-0.09,0-0.19-0.011-0.29-0.031
		l-1.34-2.18v2.18c-0.1,0.021-0.2,0.031-0.31,0.031c-0.1,0-0.2-0.011-0.31-0.031V20.51z"/>
	<path fill="#FFFFFF" d="M24.79,23.29c0.04,0.09,0.07,0.19,0.1,0.28c0.02,0.09,0.05,0.189,0.06,0.279
		c-0.17,0.061-0.32,0.101-0.45,0.121C24.37,23.99,24.23,24,24.07,24c-0.27,0-0.5-0.04-0.71-0.13c-0.2-0.091-0.37-0.21-0.51-0.37
		c-0.14-0.15-0.24-0.34-0.32-0.561c-0.07-0.219-0.1-0.459-0.1-0.709s0.04-0.49,0.11-0.711c0.07-0.22,0.18-0.399,0.32-0.56
		c0.14-0.16,0.31-0.29,0.51-0.37c0.2-0.1,0.43-0.14,0.69-0.14c0.15,0,0.29,0.01,0.42,0.03c0.13,0.02,0.27,0.06,0.42,0.119
		c-0.01,0.101-0.02,0.19-0.06,0.28l-0.1,0.271c-0.11-0.041-0.21-0.061-0.3-0.08c-0.08-0.01-0.18-0.021-0.31-0.021
		c-0.3,0-0.54,0.101-0.7,0.3c-0.16,0.2-0.24,0.49-0.24,0.881c0,0.779,0.33,1.17,0.98,1.17c0.12,0,0.22-0.01,0.31-0.03
		C24.57,23.359,24.67,23.33,24.79,23.29z"/>
	<path fill-rule="evenodd" clip-rule="evenodd" fill="#FFFFFF" d="M27.08,24c-0.26,0-0.48-0.04-0.67-0.13
		c-0.18-0.091-0.34-0.22-0.46-0.38c-0.12-0.15-0.21-0.34-0.27-0.551c-0.06-0.219-0.09-0.459-0.09-0.709s0.03-0.49,0.09-0.711
		c0.06-0.22,0.15-0.399,0.27-0.56c0.12-0.16,0.28-0.28,0.46-0.37c0.19-0.1,0.41-0.14,0.67-0.14c0.26,0,0.49,0.04,0.67,0.14
		c0.19,0.09,0.34,0.21,0.47,0.37c0.12,0.16,0.21,0.34,0.27,0.56c0.06,0.221,0.08,0.461,0.08,0.711s-0.02,0.49-0.08,0.709
		c-0.06,0.211-0.15,0.4-0.27,0.551c-0.13,0.16-0.28,0.289-0.47,0.38C27.57,23.96,27.34,24,27.08,24z M27.08,23.42
		c0.5,0,0.74-0.4,0.74-1.189c0-0.391-0.06-0.69-0.18-0.891c-0.11-0.189-0.3-0.29-0.55-0.29c-0.5,0-0.75,0.39-0.75,1.181
		C26.34,23.02,26.59,23.42,27.08,23.42z"/>
	<path fill-rule="evenodd" clip-rule="evenodd" fill="#FFFFFF" d="M30.93,20.51l0.42-0.039c0.15-0.011,0.31-0.021,0.49-0.021
		c0.6,0,1.06,0.149,1.37,0.45c0.32,0.3,0.48,0.75,0.48,1.35s-0.17,1.04-0.48,1.32C32.89,23.859,32.42,24,31.79,24
		c-0.16,0-0.31-0.01-0.45-0.02l-0.41-0.041V20.51z M31.64,23.391l0.11,0.01h0.16c0.15,0,0.28-0.01,0.41-0.051
		c0.12-0.029,0.23-0.09,0.32-0.18c0.1-0.09,0.17-0.21,0.22-0.359c0.06-0.15,0.08-0.34,0.08-0.58c0-0.23-0.02-0.42-0.08-0.57
		c-0.05-0.15-0.12-0.27-0.22-0.36c-0.09-0.09-0.2-0.149-0.31-0.2c-0.12-0.029-0.25-0.05-0.38-0.05l-0.16,0.011h-0.15V23.391z"/>
	<path fill="#FFFFFF" d="M34.62,20.51h1.95c0.02,0.09,0.03,0.19,0.03,0.29c0,0.101-0.01,0.21-0.03,0.3h-1.25v0.75h0.99
		c0.02,0.101,0.03,0.2,0.03,0.301c0,0.1-0.01,0.199-0.03,0.289h-0.99v0.91h1.28c0.02,0.09,0.03,0.19,0.03,0.291
		c0,0.109-0.01,0.209-0.03,0.299h-1.98V20.51z"/>
	<path fill="#FFFFFF" d="M41.19,23.29c0.05,0.09,0.08,0.19,0.11,0.28c0.02,0.09,0.05,0.189,0.06,0.279
		c-0.17,0.061-0.32,0.101-0.45,0.121C40.78,23.99,40.64,24,40.48,24c-0.27,0-0.51-0.04-0.71-0.13c-0.2-0.091-0.37-0.21-0.51-0.37
		c-0.14-0.15-0.25-0.34-0.31-0.561c-0.07-0.219-0.11-0.459-0.11-0.709s0.04-0.49,0.11-0.711c0.08-0.22,0.18-0.399,0.32-0.56
		s0.31-0.29,0.51-0.37c0.2-0.1,0.43-0.14,0.69-0.14c0.15,0,0.29,0.01,0.42,0.03c0.13,0.02,0.27,0.06,0.42,0.119
		c-0.01,0.101-0.03,0.19-0.06,0.28l-0.1,0.271c-0.11-0.041-0.21-0.061-0.3-0.08c-0.08-0.01-0.19-0.021-0.3-0.021
		c-0.31,0-0.54,0.101-0.71,0.3c-0.16,0.2-0.24,0.49-0.24,0.881c0,0.779,0.33,1.17,0.98,1.17c0.12,0,0.22-0.01,0.32-0.03
		C40.98,23.359,41.08,23.33,41.19,23.29z"/>
	<path fill="#FFFFFF" d="M42.24,20.51c0.11-0.02,0.23-0.029,0.34-0.029c0.12,0,0.24,0.01,0.36,0.029v1.34h1.15v-1.34
		c0.12-0.02,0.24-0.029,0.35-0.029s0.23,0.01,0.35,0.029v3.43c-0.12,0.021-0.23,0.031-0.34,0.031c-0.12,0-0.24-0.011-0.36-0.031
		V22.46h-1.15v1.479c-0.12,0.021-0.24,0.031-0.35,0.031c-0.12,0-0.24-0.011-0.35-0.031V20.51z"/>
	<path fill="#FFFFFF" d="M45.82,20.51c0.12-0.02,0.23-0.029,0.35-0.029s0.23,0.01,0.35,0.029v3.43
		c-0.12,0.021-0.23,0.031-0.35,0.031c-0.11,0-0.23-0.011-0.35-0.031V20.51z"/>
	<path fill="#FFFFFF" d="M47.55,20.51c0.12-0.02,0.23-0.029,0.34-0.029c0.11,0,0.22,0.01,0.35,0.029v2.83h1.19l0.02,0.16v0.141
		v0.149l-0.02,0.149h-1.88V20.51z"/>
	<path fill="#FFFFFF" d="M50.26,20.51h1.95c0.02,0.09,0.03,0.19,0.03,0.29c0,0.101-0.01,0.21-0.03,0.3h-1.25v0.75h0.99
		c0.02,0.101,0.03,0.2,0.03,0.301c0,0.1-0.01,0.199-0.03,0.289h-0.99v0.91h1.29c0.02,0.09,0.02,0.19,0.02,0.291
		c0,0.109,0,0.209-0.02,0.299h-1.99V20.51z"/>
	<path fill-rule="evenodd" clip-rule="evenodd" fill="#FFFFFF" d="M138.08,12.06c0.04,1.76,0.75,2.57,2.26,2.57
		c0.75,0,1.54-0.22,2.32-0.63c0.1-0.061,0.199-0.08,0.26-0.08c0.1,0,0.16,0.061,0.23,0.18l0.5,1.221c0.07,0.13,0.07,0.15,0.07,0.229
		c0,0.22-0.171,0.341-0.841,0.63c-0.899,0.391-1.81,0.57-2.81,0.57c-1.301,0-2.32-0.33-3.03-1c-0.979-0.87-1.53-2.439-1.53-4.3
		c0-3.27,1.77-5.45,4.461-5.45C142.66,6,144,7.85,144,11.56c0,0.4-0.08,0.5-0.45,0.5H138.08z M141.29,10.17
		c-0.04-1.69-0.45-2.32-1.479-2.32c-1.041,0-1.511,0.65-1.69,2.32H141.29z"/>
</g>
</svg>
