<?xml version="1.0" encoding="utf-8"?>
<!-- Generator: Adobe Illustrator 16.0.0, SVG Export Plug-In . SVG Version: 6.00 Build 0)  -->
<!DOCTYPE svg PUBLIC "-//W3C//DTD SVG 1.1//EN" "http://www.w3.org/Graphics/SVG/1.1/DTD/svg11.dtd">
<svg version="1.1" id="Layer_1" xmlns="http://www.w3.org/2000/svg" xmlns:xlink="http://www.w3.org/1999/xlink" x="0px" y="0px"
	 width="149px" height="24px" viewBox="0 0 149 24" enable-background="new 0 0 149 24" xml:space="preserve">
<path fill-rule="evenodd" clip-rule="evenodd" fill="#FFFFFF" d="M110.49,1.35h0.23c-0.181,0.47-3.301,1.97-4.511,3.36
	c-1.851,2.13-3.101,3.32-2.89,6.65c0.119,1.93,1.64,4.791,3.41,5.82c0.539,0.311,2.27,1.26,3.879,1.33
	c1.891,0.09,1.641-0.21,1.66-0.22c0-0.011,0.021,0.01,0.09,0.04V4.3c0-0.18-0.43-1.1-0.83-1.1c-0.109,0-0.289,0.22-0.289,0.35v9.681
	c0,0.369-0.33,0.89-1.961,1.979c-1.68,1.11-2.189,1.49-2.379,1.45c0.039-0.11,0.3-0.49,0.41-0.58V5.99c0-1,1.449-1.59,2.719-2.56
	c2.091-1.6,3.211-1.97,3.24-1.97h0.521c1.39,0,2.25,1.68,2.431,1.86c0.01,0.01,0.389,0.14,0.52,0.29h0.81
	c0.229,0,0.81-0.35,1.15-0.29c-0.931,0.82-3.921,2.72-3.99,2.72h-0.46c-0.221,0-0.54-0.33-0.93-0.52v12.64c0.17,0.029,0.14,0,0.24,0
	c0.56,0,2.67-1.52,2.77-1.68h0.17v0.41l-0.859,1.619c-1.811,2.07-3.83,3.09-6.721,3.12c-5.05,0.03-8.63-3.64-9.01-9.32
	c-0.391-5.67,3.59-10.32,8.27-10.62c0.68-0.04,1.51,0.01,1.62,0C109.8,1.69,110.439,1.39,110.49,1.35z M142.9,10.57l2.64,2.72
	l-2.62,1.69L142.9,10.57z M130.35,8.28h0.061l1.8,1.8v8.24l1.09,1.039l-2.079,2.031l-1.961-1.971v-8.24l-0.93-0.87L130.35,8.28z
	 M144.52,8.6c0.11,0,3.76,4.01,3.82,4.18l-5.49,3.88v1.57l3.11,1.41c0,0,1.63-0.221,2.21-0.721l0.83,0.21
	c-0.07,0.101-3.82,2.399-4.48,2.399c-0.14,0-2.939-1.079-4.1-1.85V10.8C140.42,10.41,144.51,8.6,144.52,8.6z M130.3,2.83h0.05
	l1.971,1.98v0.05L130.3,6.89l-2.03-2.03L130.3,2.83z M121.68,2.83v8.41l3.01-2.96l2.25,2.27v10.671L124.109,24h-0.06V12l-1.1-1.05
	l-1.271,1.1v6.32l1.1,1.05v0.061l-2.029,2.029l-1.96-1.98V5.73l2.89-2.84V2.83z M137.7,18.52l1.04,0.98l-2.08,1.971l-1.971-1.971
	V6.16l3.011-2.95V18.52z M85.529,10.44l2.761,2.9l-2.761,2.03V10.44z M75.24,10.27l2.779,1.27v7.95h-0.06l-2.72-1.221V10.27z
	 M87.21,8.47l3.761,4.18l-5.49,4.06v1.101c0,0.229,3.229,1.709,3.229,1.709s1.61-1.1,2.319-0.67C90.99,18.9,87.15,21.4,87.15,21.4
	l-4.101-1.791V10.44L87.21,8.47z M76.51,3.14c0.18,0,0.94,0.29,2.2,0.92c0.681,0.35,1.91,0.6,1.91,1.22v14.38l-3.82,1.8l-4.22-2.03
	v-9.1l4.05-1.8c0.14,0.02,1.44,0.52,1.44,0.52v-2.9L74.7,4.71c-0.55,0.03-1.2,0.56-1.86,0.67l0.14-0.56
	C72.98,4.82,76.029,3.14,76.51,3.14z M23.82,14.35l3.82,1.92v3.59l-3.82-1.779V14.35z M57.05,10.26l2.69,1.28v7.94l-2.72-1.211
	L57.05,10.26z M26.08,8.37c2.81,1.41,4.05,1.59,4.05,2.21V18l1.79,1.8l-1.68,1.62c-1.22-1-1.68-1.449-1.68-1.449l-3.08,1.549
	l-4.2-1.93V14.7l4.1-2.03l2.26,0.92v-2.03l-3.6-1.25l-1.81,0.22l-0.09-0.3L26.08,8.37z M48.86,8.58l4.51,1.92
	c-0.2,0.26-1.58,1.27-2.08,1.39c0,0-3.68-1.45-3.76-1.45v7.541l3.1,1.539c0,0,1.79-0.619,2.22-0.619c0.05,0,0.13,0.02,0.24,0v0.18
	l-3.53,2.32H49.1l-4.46-2.03v-8.76L48.86,8.58z M39.32,8.26l2.49,2.49v7.66l1.15,1.16l-1.9,1.85l-2.03-1.91v-7.13
	c-0.03-0.03-1.26-1.26-1.5-1.34l-1.39,1.28v6.151l1.04,1.039l-1.96,1.91l-1.8-1.74V11.97c0,0-0.85-0.71-1.21-1.16l2.43-2.49
	l2.37,2.26L39.32,8.26z M58.29,8.52l4.11,2.03v8.931l-3.88,1.92L54.36,19.6v-9.34L58.29,8.52z M14.11,11.02
	c0.18,0.04,1.22,0.67,1.22,1.1v6.67c-0.29,0.13-0.06,0-0.24,0c-0.36,0-0.98-0.29-0.98-0.64V11.02z M14.11,4.18
	c0,0,1.85,2.02,1.85,3.24c0,0.93-0.71,1.29-1.85,1.97V4.18z M15.44,0.17c0.7,0,1.12,0.75,2.31,2.32c0.3,0.39,1.68,2.09,1.68,2.9
	v0.64c0,1.65-4.34,3.31-4.34,4c0,0.47,2.28,0.25,3.3,0.93c0.97,0.65,1.39,2.02,1.39,2.78v1.98c0,1.17-1.61,1.619-3.59,3.129
	c-0.86,0.66-3.83,2.66-4.05,2.66c0,0-3.39-1.85-5.03-1.85H4.92c-0.93,0-3.19,0.811-3.36,0.811c0,0,3.42-3.361,6.88-3.361h2.32
	c0.47,0,2.11,0.67,2.54,0.811V3.19c0-0.15-0.18-0.41-0.46-0.41c-0.64,0-1.1,1.18-1.1,1.22v8.76c0,0.391-1.5,1.561-2.31,2.03
	c-1.21,0.7-1.99,1.37-2.72,1.739v-0.18c0,0,0.63-0.689,0.63-1.1V5.74c0-0.12,1.02-1.39,3.82-3.01C12.79,1.79,14.44,0.17,15.44,0.17z
	 M6.19,0h1.1c0.78,0,3.47,0.75,3.47,0.75h0.46c0.18,0,0.47-0.14,0.58-0.23c0.08,0.03,0.14,0.04,0.23,0.12L7.46,3.89
	c-0.01,0-1.39,0.68-1.39,1.33v8.18l-4.51,3.129C1.62,16.09,2.2,15.7,2.2,15.08V7.02c0-0.63,4.34-2.9,4.34-3.54S3.99,2.32,3.99,2.32
	c-0.81-0.03-1.14-0.03-1.97,0C1.22,2.35,0.31,2.86,0,2.84C0.98,2.19,3.63,0,6.19,0z"/>
</svg>
